# Blender 3.6.5
# www.blender.org
mtllib 2planes.mtl
o Plane
v -20.000000 -20.000000 4.999999
v 20.000000 -20.000000 4.999999
v -20.000000 20.000000 5.000001
v 20.000000 20.000000 5.000001
vn -0.0000 -0.0000 1.0000
vt 0.000000 0.000000
vt 1.000000 0.000000
vt 1.000000 1.000000
vt 0.000000 1.000000
s 0
f 1/1/1 2/2/1 4/3/1 3/4/1
o Plane.001
v -20.000000 -20.000000 -0.000001
v 20.000000 -20.000000 -0.000001
v -20.000000 20.000000 0.000001
v 20.000000 20.000000 0.000001
vn -0.0000 -0.0000 1.0000
vt 0.000000 0.000000
vt 1.000000 0.000000
vt 1.000000 1.000000
vt 0.000000 1.000000
s 0
f 5/5/2 6/6/2 8/7/2 7/8/2
